<?xml version="1.0" encoding="UTF-8"?>
<svg xmlns="http://www.w3.org/2000/svg" viewBox="0 0 64 64" role="img" aria-label="Zagórski - mountains favicon">
  <circle cx="32" cy="32" r="29" fill="#ffffff" stroke="#000000" stroke-width="3" />
  <g>
    <path
      d="M12 48 L16 32 L18 34 L19 28 L21 28 L27 36 L30 36 L32 18 L38 34 L40 26 L44 28 L52 48 Z"
      fill="#000000"
      stroke="#000000"
      stroke-linejoin="round"
      stroke-width="1"
    />
    <path d="M28.7 26 L32 18 L35.3 26 L33.2 27.9 L32 26.4 L30.8 27.9 Z" fill="#ffffff" />
    <path d="M22.4 32 L20 28 L17.5 32.2 L19.4 33.6 L20 32.8 L20.6 33.6 Z" fill="#ffffff" />
    <path d="M15.0 35.0 L16 32 L17.3 34.2 L16.4 35.1 L16 34.6 L15.6 35.1 Z" fill="#ffffff" />
    <path d="M41.9 31.7 L44 27.9 L46.2 31.9 L44.7 33.2 L44 32.4 L43.3 33.2 Z" fill="#ffffff" />
    <path d="M38.7 29.8 L40 26 L41.4 29.8 L40.4 30.8 L40 30.3 L39.6 30.8 Z" fill="#ffffff" />
    <path d="M34.7 24.2 L36.6 28.6 L34.9 29.6 L34.0 27.9 Z" fill="#ffffff" />
    <polygon points="26.4,32.3 27.7,30.0 29.2,30.8 30.0,32.0 28.9,33.9 27.3,33.4" fill="#000000" />
  </g>
</svg>
